<svg width="35" height="35" viewBox="0 0 35 35" fill="none" xmlns="http://www.w3.org/2000/svg">
<path d="M5.8335 8.75H29.1668L26.8627 29.4875C26.7837 30.2012 26.4442 30.8606 25.9093 31.3396C25.3743 31.8186 24.6815 32.0834 23.9635 32.0833H11.0368C10.3188 32.0834 9.62598 31.8186 9.09105 31.3396C8.55611 30.8606 8.21665 30.2012 8.13766 29.4875L5.8335 8.75Z" stroke="white" stroke-width="2" stroke-linecap="round" stroke-linejoin="round"/>
<path d="M10.7115 4.58938C10.9473 4.08912 11.3206 3.66625 11.7877 3.37008C12.2548 3.07392 12.7965 2.91667 13.3496 2.91667H21.6504C22.2037 2.91639 22.7457 3.07351 23.2131 3.36969C23.6805 3.66588 24.054 4.0889 24.29 4.58938L26.25 8.75H8.75L10.7115 4.58938Z" stroke="white" stroke-width="2" stroke-linecap="round" stroke-linejoin="round"/>
<path d="M2.91675 8.75H32.0834" stroke="white" stroke-width="2" stroke-linecap="round" stroke-linejoin="round"/>
<path d="M14.5833 16.0417V23.3333" stroke="white" stroke-width="2" stroke-linecap="round" stroke-linejoin="round"/>
<path d="M20.4167 16.0417V23.3333" stroke="white" stroke-width="2" stroke-linecap="round" stroke-linejoin="round"/>
</svg>
